<svg xmlns="http://www.w3.org/2000/svg" width="94" height="65" fill="none"><path fill="#202020" d="M53.222 19.814c0-7.278 2.593-14.178 7.402-19.783l1.422 1.298c-4.266 5.186-6.733 11.419-6.733 18.487s2.467 13.3 6.733 18.487L60.624 39.6c-4.811-5.604-7.402-12.505-7.402-19.782zm39.977 0c0 7.278-2.593 14.178-7.402 19.783l-1.422-1.296c4.266-5.186 6.734-11.419 6.734-18.487s-2.468-13.3-6.734-18.487L85.797.03c4.809 5.605 7.402 12.505 7.402 19.782zM0 64.09v-1.923c7.45 0 8.492-1.442 8.492-6.328V8.252c0-4.887-1.042-6.33-8.492-6.33V0h23.553c14.02 0 22.512 5.688 22.512 18.105 0 12.658-8.732 18.907-20.108 18.987-3.525.08-6.17-.56-8.492-1.442v20.19c0 4.886 1.121 6.328 8.892 6.328v1.923H0Zm24.434-30.603c8.412 0 12.658-6.409 12.658-15.382 0-9.934-5.447-14.82-13.138-14.82-2.003 0-3.605.32-5.047.88q-1.443.601-1.442 2.164v25.796c1.842.721 4.085 1.362 6.97 1.362Zm58.664-4.344c0-.215-.071-.286-.358-.286-1.503 0-2.968-.464-4.362-3.219l-2.576-5.077c-.428-.822-.428-1.967 0-2.789l1.967-3.825c1.43-2.718 2.862-3.182 4.685-3.182.286 0 .393-.071.393-.286a.4.4 0 0 0-.008-.093v-.37H63.965v.465c0 .215.106.286.357.286 1.539 0 3.004.464 4.398 3.22l2.36 4.612c.393.824.429 2.003 0 2.825l-2.073 4.22c-1.359 2.718-2.718 3.22-4.47 3.22-.286 0-.392.07-.392.285v.473h18.95v-.473zM76.983 14.34l-1.43 2.717c-.428.822-1.036.822-1.43 0l-1.43-2.717c-1.287-2.54-1.287-3.612 2.004-3.612 3.612 0 3.576 1.143 2.288 3.612zm-7.186 10.905 1.538-3.11c.393-.822 1.002-.86 1.395-.036l1.645 3.184c1.323 2.54 1.323 3.612-2.003 3.612h-.18c-3.612 0-3.612-1.181-2.395-3.648z"/></svg>